<svg id="Capa_1" data-name="Capa 1" xmlns="http://www.w3.org/2000/svg" viewBox="0 0 70 54"><defs><style>.cls-1{fill:#0071b1;}</style></defs><title>Mesa de trabajo 4</title><g id="icon-graduation"><path class="cls-1" d="M12.22,34.55c1.6,6.49,3.64,9.32,10.43,12.29s10,6.21,12.68,6.21S41,50.21,47.81,47.24s5-3.88,6.58-10.36L35.33,46.15l-23.1-11.6ZM68.15,17.64,39.42,1.55a9.32,9.32,0,0,0-8.18,0L2.52,17.64C.27,18.9.27,21,2.52,22.22L31.24,38.3a9.32,9.32,0,0,0,8.18,0L58,27.9,37.85,23.19a10.55,10.55,0,0,1-2.52.3c-3.63,0-6.57-1.75-6.57-3.91s2.94-3.91,6.57-3.91c2.82,0,5.21,1.06,6.15,2.54l21.32,7,5.34-3c2.25-1.26,2.25-3.32,0-4.58ZM59.37,48.12c-.22,1.32,4.42,3.51,4.87-.38,2-17.49-1.44-22.53-1.44-22.53L58,27.91S62.07,31.79,59.37,48.12Z"/></g></svg>