<svg xmlns="http://www.w3.org/2000/svg" viewBox="0 0 224 128"><defs><style>.cls-1{fill:#0071b1;}.cls-2{fill:#e7e7e7;}.cls-3{fill:#fff;}</style></defs><title>Mesa de trabajo 3</title><g id="Capa_2" data-name="Capa 2"><rect class="cls-1" x="-0.28" y="-0.5" width="224" height="128"/><path class="cls-2" d="M50.1,108.17a1.15,1.15,0,0,1-.64-.2.68.68,0,0,1-.29-.6v-21a.68.68,0,0,1,.29-.6,1.09,1.09,0,0,1,.64-.21h11a.62.62,0,0,1,.58.3,1.11,1.11,0,0,1,.19.63,1.2,1.2,0,0,1-.2.67.68.68,0,0,1-.57.29h-9.9V96h4.86a.68.68,0,0,1,.57.27,1.14,1.14,0,0,1,.2.65,1,1,0,0,1-.19.59.64.64,0,0,1-.58.28H51.21v8.53h9.9a.69.69,0,0,1,.57.28,1.19,1.19,0,0,1,.2.68,1.14,1.14,0,0,1-.19.64.63.63,0,0,1-.58.29Z"/><path class="cls-2" d="M65.81,108.17a1,1,0,0,1-.68-.23.72.72,0,0,1-.25-.54V86.34a.69.69,0,0,1,.25-.54.92.92,0,0,1,.68-.24h5.47a8.13,8.13,0,0,1,3.3.65,5,5,0,0,1,2.31,2.11,7.56,7.56,0,0,1,.86,3.86v9.37a7.6,7.6,0,0,1-.86,3.87,4.94,4.94,0,0,1-2.31,2.1,8.13,8.13,0,0,1-3.3.65Zm1.11-1.89h4.36a4.43,4.43,0,0,0,3.25-1.15,4.87,4.87,0,0,0,1.17-3.58V92.18a4.83,4.83,0,0,0-1.17-3.57,4.4,4.4,0,0,0-3.22-1.16H66.92Z"/><path class="cls-2" d="M88.54,108.36a8,8,0,0,1-3.28-.65,5.13,5.13,0,0,1-2.32-2.11,7.43,7.43,0,0,1-.87-3.86V86.34a.65.65,0,0,1,.31-.59,1.44,1.44,0,0,1,1.43,0,.65.65,0,0,1,.31.59v15.4a4.83,4.83,0,0,0,1.17,3.57,4.44,4.44,0,0,0,3.25,1.16,4.5,4.5,0,0,0,3.28-1.16A4.83,4.83,0,0,0,93,101.74V86.34a.63.63,0,0,1,.31-.59,1.39,1.39,0,0,1,.71-.19,1.37,1.37,0,0,1,.71.19.63.63,0,0,1,.31.59v15.4a7.54,7.54,0,0,1-.85,3.86,5,5,0,0,1-2.33,2.11A8.25,8.25,0,0,1,88.54,108.36Z"/><path class="cls-2" d="M105.79,108.36a8,8,0,0,1-3.21-.65,5.05,5.05,0,0,1-2.35-2.11,7.43,7.43,0,0,1-.87-3.86V92.18a7.25,7.25,0,0,1,.9-3.86,5.27,5.27,0,0,1,2.36-2.11,8,8,0,0,1,3.24-.65,7.6,7.6,0,0,1,3.46.72,5.38,5.38,0,0,1,2.18,1.88,4.76,4.76,0,0,1,.76,2.6,1.28,1.28,0,0,1-.27,1,1.35,1.35,0,0,1-1.54,0,.88.88,0,0,1-.27-.54,4.19,4.19,0,0,0-.17-1.13,3.54,3.54,0,0,0-.61-1.23,3.35,3.35,0,0,0-1.3-1,5.37,5.37,0,0,0-2.21-.39,4.45,4.45,0,0,0-3.31,1.16,4.86,4.86,0,0,0-1.15,3.57v9.56a4.89,4.89,0,0,0,1.16,3.59,4.65,4.65,0,0,0,3.39,1.14,5.05,5.05,0,0,0,2.19-.39,3,3,0,0,0,1.21-1,3.76,3.76,0,0,0,.57-1.24,8,8,0,0,0,.23-1.22,1,1,0,0,1,.3-.61,1.12,1.12,0,0,1,.73-.2,1,1,0,0,1,.78.27,1.39,1.39,0,0,1,.27,1,4.6,4.6,0,0,1-.78,2.58,5.42,5.42,0,0,1-2.21,1.92A7.71,7.71,0,0,1,105.79,108.36Z"/><path class="cls-2" d="M115.29,108.17a1.33,1.33,0,0,1-.53-.11,1.14,1.14,0,0,1-.46-.31.61.61,0,0,1-.19-.44.69.69,0,0,1,0-.22l6.47-21a.86.86,0,0,1,.46-.57,1.68,1.68,0,0,1,.74-.17,1.73,1.73,0,0,1,.79.18.84.84,0,0,1,.45.56l6.43,21a.57.57,0,0,1,0,.18.64.64,0,0,1-.18.45,1.47,1.47,0,0,1-.47.33,1.43,1.43,0,0,1-.58.12,1,1,0,0,1-.47-.12.74.74,0,0,1-.31-.4l-1.42-4.77h-8.54l-1.42,4.77a.7.7,0,0,1-.31.4A1.05,1.05,0,0,1,115.29,108.17Zm2.75-7h7.51l-3.74-12.46Z"/><path class="cls-2" d="M144.29,108.23a.79.79,0,0,1-.61-.35,4.51,4.51,0,0,1-.47-.73l-4.76-9.28h-3.93v9.5a.66.66,0,0,1-.32.6,1.35,1.35,0,0,1-.7.2,1.31,1.31,0,0,1-.71-.2.65.65,0,0,1-.31-.6v-21a.71.71,0,0,1,.22-.53.94.94,0,0,1,.55-.25h5.48a9.67,9.67,0,0,1,3.34.56A4.94,4.94,0,0,1,144.5,88a6.42,6.42,0,0,1,.91,3.65,6.76,6.76,0,0,1-.64,3.15,4.57,4.57,0,0,1-1.73,1.9,7.13,7.13,0,0,1-2.46.92l4.77,9.15a.35.35,0,0,1,.1.2,1.5,1.5,0,0,1,0,.2.91.91,0,0,1-.17.5,1.25,1.25,0,0,1-.45.4A1.15,1.15,0,0,1,144.29,108.23Zm-9.77-12.12h4.21a5.2,5.2,0,0,0,3.35-1,4.94,4.94,0,0,0,0-6.66,5.32,5.32,0,0,0-3.35-1h-4.21Z"/><path class="cls-2" d="M153.54,108.17a1.31,1.31,0,0,1-.71-.2.65.65,0,0,1-.31-.6V87.48h-5.19a.7.7,0,0,1-.59-.29,1.08,1.08,0,0,1-.22-.67,1.05,1.05,0,0,1,.22-.66.68.68,0,0,1,.59-.3h12.4a.63.63,0,0,1,.58.3,1.11,1.11,0,0,1,.19.63,1.22,1.22,0,0,1-.19.68.62.62,0,0,1-.58.31h-5.17v19.89a.66.66,0,0,1-.32.6A1.35,1.35,0,0,1,153.54,108.17Z"/><path class="cls-2" d="M164.18,108.17a1.1,1.1,0,0,1-.63-.2.67.67,0,0,1-.3-.6v-21a.67.67,0,0,1,.3-.6,1,1,0,0,1,.63-.21h11a.65.65,0,0,1,.59.3,1.18,1.18,0,0,1,.18.63,1.13,1.13,0,0,1-.2.67.65.65,0,0,1-.57.29h-9.9V96h4.86a.66.66,0,0,1,.57.27,1.14,1.14,0,0,1,.2.65,1,1,0,0,1-.18.59.66.66,0,0,1-.59.28h-4.86v8.53h9.9a.67.67,0,0,1,.57.28,1.12,1.12,0,0,1,.2.68,1.21,1.21,0,0,1-.18.64.66.66,0,0,1-.59.29Z"/><path class="cls-3" d="M83.42,32.75a2,2,0,0,1-.77-3.85l30-12.55A2,2,0,1,1,114.23,20l-30,12.55A1.9,1.9,0,0,1,83.42,32.75Z"/><path class="cls-3" d="M143.5,32.75a1.9,1.9,0,0,1-.77-.16L112.69,20a2,2,0,1,1,1.54-3.69l30,12.55a2,2,0,0,1-.77,3.85Z"/><path class="cls-3" d="M62,60.37a2,2,0,0,1-2-2V35H95.84a2,2,0,0,1,0,4H64V58.37A2,2,0,0,1,62,60.37Z"/><path class="cls-3" d="M164.9,60.37h0a2,2,0,0,1-2-2L163,39H131.08a2,2,0,0,1,0-4H167l-.08,23.35A2,2,0,0,1,164.9,60.37Z"/><path class="cls-3" d="M75.76,61.24a3.49,3.49,0,0,1-3.5-3.5V43.93a3.5,3.5,0,1,1,7,0V57.74A3.5,3.5,0,0,1,75.76,61.24Z"/><path class="cls-3" d="M94.59,61.24a3.5,3.5,0,0,1-3.5-3.5V43.93a3.5,3.5,0,0,1,7,0V57.74A3.5,3.5,0,0,1,94.59,61.24Z"/><path class="cls-3" d="M132.25,61.24a3.5,3.5,0,0,1-3.5-3.5V43.93a3.5,3.5,0,0,1,7,0V57.74A3.49,3.49,0,0,1,132.25,61.24Z"/><path class="cls-3" d="M113,62.74a5,5,0,0,1-5-5V43.93a5,5,0,1,1,10,0V57.74A5,5,0,0,1,113,62.74Z"/><path class="cls-3" d="M151.09,61.24a3.49,3.49,0,0,1-3.5-3.5V43.93a3.5,3.5,0,0,1,7,0V57.74A3.5,3.5,0,0,1,151.09,61.24Z"/><circle class="cls-3" cx="112.98" cy="32" r="4"/><path class="cls-3" d="M172.72,76.5h-122a2.5,2.5,0,0,1,0-5h122a2.5,2.5,0,0,1,0,5Z"/><path class="cls-3" d="M162.22,68h-101a2,2,0,0,1,0-4h101a2,2,0,0,1,0,4Z"/></g></svg>